<?xml version="1.0" encoding="utf-8"?><svg xmlns="http://www.w3.org/2000/svg" xmlns:xlink="http://www.w3.org/1999/xlink"><symbol id="icon-arrow-left" viewBox="0 0 56 44" xmlns="http://www.w3.org/2000/svg"><style>.ast0{fill:#4a485b}</style><path class="ast0" d="M54 24H7.1l18.3 16.6c.8.8.8 2 0 2.8s-2 .8-2.8 0L.8 23.5c-.1 0-.1 0-.2-.1C.2 23 0 22.5 0 22s.2-1 .6-1.4c.1-.1.1 0 .2-.1L22.7.6c.8-.8 2-.8 2.8 0s.8 2 0 2.8L7.1 20H54c1.1 0 2 .9 2 2s-.9 2-2 2z"/></symbol><symbol id="icon-arrow-right" viewBox="0 0 56.1 44" xmlns="http://www.w3.org/2000/svg"><style>.bst0{fill:#4a485b}</style><path class="bst0" d="M0 22c0-1.1.9-2 2-2h46.9L30.6 3.4c-.8-.8-.8-2 0-2.8s2-.8 2.8 0l21.9 19.9c.1 0 .1 0 .2.1.4.4.6.9.6 1.4s-.2 1-.6 1.4c-.1.1-.1 0-.2.1L33.4 43.4c-.8.8-2 .8-2.8 0s-.8-2 0-2.8L48.9 24H2c-1.1 0-2-.9-2-2z"/></symbol><symbol id="icon-boy" viewBox="0 0 512 512" xmlns="http://www.w3.org/2000/svg"><style>.cst0{fill:#fff}</style><path class="cst0" d="M275.3 167.7h-6.1V180h6.2c6.8 0 12.3 5.5 12.3 12.3s-5.5 12.3-12.3 12.3h-6.2v12.3h6.2c13.5 0 24.6-11 24.6-24.6s-11.2-24.6-24.7-24.6zm-135 12.3h6.2v-12.3h-6.2c-13.5 0-24.6 11-24.6 24.6s11 24.6 24.6 24.6h6.2v-12.3h-6.2c-6.8 0-12.3-5.5-12.3-12.3 0-6.8 5.5-12.3 12.3-12.3zm63.4 36.8l8.4-29.2c1-3.2-1-6.7-4.2-7.6-3.2-1-6.7 1-7.6 4.2l-10.6 37c-.7 2.3 0 4.8 1.9 6.3 1.1 1 2.7 1.5 4.3 1.5H208c3.4 0 6.2-2.8 6.2-6.2 0-3.4-2.8-6.2-6.2-6.2l-4.3.2z"/><path class="cst0" d="M280.5 170.4l-24.6-36.8c-1.1-1.7-3-2.8-5.1-2.8H140.3c-3.4 0-6.2 2.8-6.2 6.2v71.8c0 18.3 4.7 36.4 13.6 52.4 12.1 21.8 35.1 35.3 60 35.3s48-13.5 60-35.3c8.9-16 13.6-34.2 13.6-52.4v-35c.2-1.2-.2-2.4-.8-3.4zm-11.3 38.4c0 16.3-4.2 32.3-12.1 46.5-9.9 17.9-28.8 29-49.3 29-20.5 0-39.4-11.1-49.3-29-7.9-14.2-12.1-30.3-12.1-46.5v-65.7h101.1l21.7 32.5v33.2z"/><path class="cst0" d="M283.1 113.6c-4.9-6.9-12.4-11.6-20.8-13-.4-.1-.8-.1-1.1-.2-5.4-11.3-16.9-18.7-29.8-18.7H162L151.5 66c-1-1.5-2.7-2.6-4.5-2.7-1.8-.2-3.6.5-4.9 1.8l-6.2 6.2c-19.3 19.3-19.3 50.7 0 70l8.7-8.7c-7-7-10.9-16.4-10.9-26.4s3.9-19.3 10.9-26.4l.9-.9 8.1 12.2c1.1 1.7 3 2.8 5.1 2.8h72.7c8.9 0 16.8 5.7 19.7 14.2.9 2.5 3.1 4.2 5.8 4.2 1-.1 2.2.1 3.3.3 5.2.9 9.8 3.7 12.8 8.1 3 4.4 4.3 9.5 3.4 14.8l-7.2 43.4 12.1 2 7.2-43.4c1.6-8.4-.4-16.9-5.4-23.9zM164.8 278.2v25.3l-44.2 5.9c-27.3 3.6-48 27.2-48 54.7v67.6H85v-67.6c0-21.4 16-39.8 37.3-42.6l49.5-6.6c3-.4 5.3-3 5.3-6.1v-30.7l-12.3.1zm130.1 31.1l-44.2-5.9v-25.3h-12.3v30.7c0 3 2.3 5.7 5.3 6.1l49.5 6.6c21.2 2.9 37.3 21.1 37.3 42.6v67.6h12.3v-67.5c.1-27.7-20.6-51.2-47.9-54.9zM128 382.5c3.4 0 6.2 2.8 6.2 6.2v43h-12.3v-43c0-3.5 2.8-6.2 6.1-6.2zm159.6 0c3.4 0 6.2 2.8 6.2 6.2v43h-12.3v-43c0-3.5 2.8-6.2 6.1-6.2z"/><path class="cst0" d="M161.8 433.7c0-3.4 2.8-6.2 6.2-6.2h174.9v12.4H168c-3.4 0-6.2-2.8-6.2-6.2zm-89 6.2v-12.3h67.6c3.4 0 6.2 2.8 6.2 6.2 0 3.4-2.8 6.2-6.2 6.2l-67.6-.1zm131.6-111.6L174.8 348l-10.2-40.6-11.9 3 12.3 49.1c.5 1.9 1.9 3.5 3.7 4.3.8.3 1.4.4 2.2.4 1.2 0 2.4-.4 3.4-1l36.8-24.6-6.7-10.3z"/><path class="cst0" d="M247.7 303.5l-40 22.8-40-22.8-6.1 10.7 43 24.6c1 .6 2 .9 3 .9s2.1-.3 3-.9l43-24.6-5.9-10.7z"/><path class="cst0" d="M251 307.4L240.8 348l-29.6-19.7-6.9 10.2 36.8 24.6c1 .7 2.2 1 3.4 1 .8 0 1.5-.1 2.2-.4 1.9-.8 3.2-2.3 3.7-4.3l12.3-49.1-11.7-2.9zm-49.6 54.7l-6.2-18.5-11.6 3.9 5.7 17.2-6 66.2 12.2 1.1 6.1-67.6c.2-.6.1-1.4-.2-2.3z"/><path class="cst0" d="M226.3 364.8l5.7-17.2-11.6-3.9-6.2 18.5c-.3.8-.4 1.6-.3 2.5l6.2 67.6 12.2-1.1-6-66.4z"/><path class="cst0" d="M195.6 357.9h24.6v12.3h-24.6zm207.7-144.7c-35.8 0-64.9-29.1-64.9-64.9s29.1-64.9 64.9-64.9 64.9 29.1 64.9 64.9-29.1 64.9-64.9 64.9zm0-115.6c-28 0-50.7 22.7-50.7 50.7s22.7 50.7 50.7 50.7 50.7-22.7 50.7-50.7-22.7-50.7-50.7-50.7z"/><path class="cst0" d="M384.3 114.4c4.6-.9 10.9-1.4 19.6-1.4 9.4 0 16.3 2 20.7 5.7 4.2 3.4 6.9 8.9 6.9 15.5 0 6.7-2.1 12.2-6.1 16-5.1 5.1-13.1 7.5-22.3 7.5-2.4 0-4.6-.1-6.3-.4v26.6H384v-69.5h.3zm12.7 32.7c1.5.4 3.6.5 6.3.5 9.6 0 15.4-4.7 15.4-12.9 0-7.8-5.4-12-14.3-12-3.5 0-6.1.3-7.4.7v23.7z"/><path class="cst0" d="M375.1 163.1h30.5v9.3h-30.5z"/></symbol><symbol id="icon-man" viewBox="0 0 512 512" xmlns="http://www.w3.org/2000/svg"><style>.dst0{fill:#fff}</style><path class="dst0" d="M294.1 334.9c-6.2-4-11.1-5.9-12.3-6.3L246 313.7l-25.2-16.6c-.2-.2-.5-.3-.8-.4v-10.8c19-9.5 32.8-28 35.8-49.9 15.3-1.2 27.5-14.1 27.5-29.8 0-7.8-3-14.8-7.8-20.1v-38.3c0-48.3-39.3-87.5-87.5-87.5h-6.8c-48.2 0-87.5 39.3-87.5 87.5v37.8c-5.1 5.4-8.2 12.6-8.2 20.6 0 15.7 12.1 28.5 27.5 29.8 3 21.9 16.8 40.4 35.8 49.9V296l-26.3 17.3c-.4.1-.7.2-1.1.3l-36 15c-1.8.6-12.4 4.7-22.9 14.6-10.2 9.8-22.6 27.5-22.6 55.8v50.6c0 3.5 2.8 6.3 6.3 6.3h74.2c3.5 0 6.3-2.8 6.3-6.3s-2.8-6.3-6.3-6.3H101v-46.6c0-3.5-2.8-6.3-6.3-6.3s-6.3 2.8-6.3 6.3v46.6h-36V399c0-45.2 35.8-58.1 37.3-58.6.1 0 .3-.1.4-.2l29.9-12.5 32.4 115.6H140c-3.5 0-6.3 2.8-6.3 6.3s2.8 6.3 6.3 6.3h181c3.5 0 6.3-2.8 6.3-6.3V399c.2-36.9-20.7-56-33.2-64.1zm-58.2-12.8L217 361l-23.5-17.3 24.8-25.8c1.4-1.4 1.9-3.3 1.7-5.2 0-.3.1-.5.1-.8v-.3l15.8 10.5zm-38.1 40.3l-4.9 13.1H176l-5.6-13.3 13.6-10 13.8 10.2zM161.3 313c.1-.3.1-.7.1-1.1v-21.4c5.3 1.4 10.9 2.1 16.6 2.1h12.9c5.8 0 11.3-.7 16.6-2.1V311l-23.4 24.3-22.8-22.3zm109.5-106.8c0 8.5-6.2 15.6-14.3 17v-34.1c8.1 1.5 14.3 8.6 14.3 17.1zm-158.4 17.1c-8.1-1.4-14.3-8.5-14.3-17s6.2-15.6 14.3-17v34zm6.3-53h-.9c-.1 0-.3 0-.4.1-.1 0-.2 0-.3.1-.1 0-.2.1-.3.1-.1 0-.2.1-.3.1-.1 0-.2.1-.3.1-.1 0-.2.1-.3.2-.1 0-.1.1-.2.1-.1.1-.2.1-.3.2-.1 0-.1.1-.2.1-.1.1-.2.1-.3.2-.1 0-.1.1-.2.1-.1.1-.2.1-.2.2l-.2.2c-.1.1-.1.2-.2.2l-.2.2c-.1.1-.1.2-.2.2-.1.1-.1.2-.2.2-.1.1-.1.2-.2.2-.1.1-.1.2-.2.3 0 .1-.1.2-.1.3 0 .1-.1.2-.1.3 0 .1-.1.2-.1.3 0 .1-.1.2-.1.3 0 .1 0 .2-.1.3 0 .1-.1.2-.1.3v.3c0 .1 0 .2-.1.3v.6c-2.1.2-4.1.6-6.1 1.3v-29.9c0-41.3 33.6-74.9 74.9-74.9h6.8c41.3 0 74.9 33.6 74.9 74.9v30.1c-2.1-.7-4.2-1.2-6.5-1.4v-.7c0-.1 0-.2-.1-.4 0-.1 0-.2-.1-.3 0-.1 0-.2-.1-.3 0-.1-.1-.2-.1-.3 0-.1-.1-.2-.1-.2 0-.1-.1-.2-.2-.3 0-.1-.1-.1-.1-.2-.1-.1-.1-.2-.2-.3 0-.1-.1-.1-.1-.2-.1-.1-.1-.2-.2-.3l-.2-.2c-.1-.1-.1-.2-.2-.2-.1-.1-.1-.2-.2-.2l-.2-.2c-.1-.1-.2-.1-.2-.2l-.2-.2c-.1-.1-.2-.1-.3-.2-.1-.1-.2-.1-.2-.2-.1-.1-.2-.1-.3-.2-.1-.1-.2-.1-.3-.1-.1 0-.2-.1-.3-.1-.1-.1-.2-.1-.3-.1-.1 0-.1-.1-.2-.1s-.3-.1-.4-.1h-.2c-24.6-5.6-32-36.5-32.1-36.8-.5-2.4-2.4-4.3-4.9-4.8-2.4-.5-4.9.5-6.3 2.5-27.7 38.3-88.4 38.7-89.4 38.7zm6.3 56.8v-44.5c16.1-1 58.7-6.3 86.2-35.1 4.7 11.1 14.5 27.4 32.9 33.7V227c0 29.3-23.8 53.1-53.1 53.1h-13c-29.2.1-53-23.7-53-53zm23.8 83.9v1c0 .7.1 1.3.3 1.9-.7 2.2-.2 4.7 1.6 6.4l23.9 23.3L151 361l-18.9-38.9 16.7-11.1zm10.4 109.5l-12.3-44c.1 0 .2.1.3.1.5.1 1 .2 1.5.2 1.3 0 2.6-.4 3.7-1.2l7.6-5.6 5.3 12.6-6.1 37.9zm9 22.9l8.9-55.3h14.7l8.9 55.3h-32.5zm35.5-60.9l4.6-12.3 7.4 5.4c1.1.8 2.4 1.2 3.7 1.2.5 0 1-.1 1.5-.2s1-.3 1.5-.6l-12.5 44.7-6.2-38.2zm111.2 60.9h-36v-46.6c0-3.5-2.8-6.3-6.3-6.3s-6.3 2.8-6.3 6.3v46.6h-49.8l32.2-114.9 28.4 11.9c.1.1.3.1.4.1 0 0 4.2 1.5 9.7 5 12.6 8.2 27.6 24.1 27.6 53.6v44.3z"/><path class="dst0" d="M191.8 232.9c3.5 0 6.3-2.8 6.3-6.3s-2.8-6.3-6.3-6.3h-4.6v-14.5c0-3.5-2.8-6.3-6.3-6.3s-6.3 2.8-6.3 6.3v20.8c0 3.5 2.8 6.3 6.3 6.3h10.9zm217.1-21.7c-37.6 0-68.1-30.6-68.1-68.1S371.4 75 408.9 75s68.1 30.4 68.1 68-30.6 68.2-68.1 68.2zm0-124c-30.8 0-55.8 25-55.8 55.8s25 55.8 55.8 55.8 55.8-25 55.8-55.8-25.1-55.8-55.8-55.8z"/><path class="dst0" d="M388.4 106.6c4.9-.9 11.8-1.6 21-1.6 10.1 0 17.5 2.1 22.3 6.2 4.5 3.7 7.4 9.6 7.4 16.7 0 7.2-2.2 13.1-6.5 17.1-5.5 5.5-14.1 8.1-23.8 8.1-2.6 0-4.9-.1-6.7-.4V181h-13.7v-74.4zm13.7 35.1c1.7.4 3.9.6 6.7.6 10.3 0 16.6-5 16.6-13.9 0-8.4-5.8-12.9-15.3-12.9-3.8 0-6.5.3-7.9.7v25.5z"/><path class="dst0" d="M378.6 158.8h32.7v10h-32.7z"/></symbol><symbol viewBox="0 0 502 502" id="icon-megaphone" xmlns="http://www.w3.org/2000/svg"><path d="M253.094 163.827c.694 5.004 4.979 8.627 9.893 8.627.457 0 .921-.032 1.387-.096 29.835-4.138 59.079-11.176 86.92-20.92 5.213-1.824 7.96-7.529 6.136-12.742-1.824-5.212-7.527-7.959-12.742-6.134-26.593 9.306-54.538 16.03-83.063 19.986-5.471.759-9.29 5.809-8.531 11.279zm128.911-25.45a9.969 9.969 0 0 0 4.13-.898 401.543 401.543 0 0 0 22.563-11.112c4.875-2.596 6.723-8.652 4.127-13.527s-8.65-6.721-13.526-4.126a381.564 381.564 0 0 1-21.435 10.556c-5.028 2.284-7.253 8.212-4.969 13.24a10.002 10.002 0 0 0 9.11 5.867z"/><path d="M467.252 4c-18.769 0-34.1 14.96-34.719 33.581-50.031 42.993-104.507 61.926-141.758 70.234-41.516 9.258-71.326 7.744-71.61 7.729-.098-.006-.195 0-.293-.002-.094-.003-.186-.014-.28-.014H75.995c-5.522 0-10 4.477-10 10v28.73h-.018C29.598 154.257 0 183.854 0 220.235s29.598 65.978 65.978 65.978h.018v28.73c0 5.523 4.478 10 10 10h17.291l22.907 122.303c5.507 29.409 31.22 50.754 61.141 50.754h48.078a9.999 9.999 0 0 0 9.829-11.841l-30.195-161.216h13.545c.1 0 .196-.012.295-.015.089-.002.178.004.267-.001.298-.016 30.104-1.531 71.621 7.728 37.251 8.308 91.727 27.241 141.758 70.233.619 18.621 15.95 33.581 34.719 33.581 19.16 0 34.748-15.588 34.748-34.748V38.748C502 19.588 486.412 4 467.252 4zM65.996 266.213h-.018C40.625 266.213 20 245.587 20 220.235s20.625-45.978 45.978-45.978h.018v91.956zM205.125 434H180c-5.522 0-10 4.477-10 10s4.478 10 10 10h28.871l4.495 24h-36.031c-20.301 0-37.747-14.482-41.483-34.436l-22.218-118.621h71.065L189.018 348H163c-5.522 0-10 4.477-10 10s4.478 10 10 10h29.764l4.308 23H171c-5.522 0-10 4.477-10 10s4.478 10 10 10h29.817l4.308 23zm3.467-129.057H85.995V135.526h122.597v169.417zm223.913 72.103c-49.627-38.409-101.622-56.014-138.101-64.071-29.384-6.492-52.973-7.922-65.812-8.133V135.628c12.839-.211 36.428-1.642 65.812-8.132 36.479-8.057 88.474-25.662 138.101-64.071v313.621zM482 401.721c0 8.132-6.616 14.748-14.748 14.748s-14.748-6.616-14.748-14.748V38.748c0-8.132 6.616-14.748 14.748-14.748S482 30.616 482 38.748v362.973z"/></symbol><symbol viewBox="0 0 460.482 460.482" id="icon-money" xmlns="http://www.w3.org/2000/svg"><path d="M459.16 271.449l-30.113-46.989a241.75 241.75 0 0 0 12.103-11.288 7.502 7.502 0 0 0 1.505-8.449L391.952 94.969a7.498 7.498 0 0 0-12.112-2.157c-20.915 20.915-45.376 37.259-72.703 48.579s-56.181 17.059-85.759 17.059H7.5a7.5 7.5 0 0 0-6.318 3.459 7.48 7.48 0 0 0-1.167 4.041H0v86.662c0 1.086.236 2.159.691 3.146L51.394 365.51l.004-.002a7.495 7.495 0 0 0 6.805 4.361h394.78a7.5 7.5 0 0 0 7.5-7.5v-86.67a7.475 7.475 0 0 0-1.323-4.25zM15 200.068l35.702 77.284v8.443L15 208.511v-8.443zm57.156-26.619h115.526l9.708 21.014c-18.702 3.076-41.397 9.849-41.397 24.609 0 21.444 47.46 26.11 65.287 27.105l10.173 22.022H126.104c-5.429-17.025-31.523-29.177-64.932-29.177a128.5 128.5 0 0 0-11.413.52L31.266 199.51c21.4-4.227 36.487-13.889 40.89-26.061zm141.955 57.21c-25.555-2.226-39.967-8.137-42.835-11.573 2.228-2.529 12.188-7.568 32.664-10.446l10.171 22.019zm21.57 80.951H65.702v-5.798h169.979v5.798zM62.997 268.199l-6.5-14.072c1.552-.063 3.109-.106 4.675-.106 23.996 0 40.946 7 47.715 14.177h-45.89zm172.684 22.612H65.702v-7.609h169.979v7.609zM65.702 326.61h169.979v5.999H65.702v-5.999zm184.979-43.407s25.006-.026 26.806-.066v71.732h-26.806v-71.666zm41.805 43.407h152.996v5.999H292.486v-5.999zm0-15v-5.798h152.996v5.798H292.486zm0-20.799v-7.613h152.996v7.613H292.486zm146.775-22.612h-83.86a243 243 0 0 0 8.178-3.196c19.344-8.013 37.333-18.399 53.773-30.991l21.909 34.187zm-38.312-40.749c-3.364-10.993 4.195-26.021 18.498-37.196l7.37 15.953a223.637 223.637 0 0 1-25.868 21.243zm-18.21-116.656l6.232 13.491c-13.661 6.82-26.433 9.72-35.676 9.496a237.77 237.77 0 0 0 29.444-22.987zm-69.862 44.454a240.783 240.783 0 0 0 22.567-10.757c5.136 2.864 11.667 4.272 19.082 4.272 11.994 0 26.299-3.687 40.742-10.848l17.751 38.424c-22.838 16.371-33.334 41.107-24.893 59.483a224.555 224.555 0 0 1-30.287 15.322c-21.943 9.089-44.872 14.572-68.368 16.383l-11.504-24.903c29.06-5.799 35.516-15.809 35.516-23.552 0-19.664-40.455-25.189-58.719-26.676l-9.311-20.155c23.141-2.325 45.733-8.008 67.424-16.993zm-50.822 52.931c22.934 2.749 33.783 8.285 36.131 10.898-1.987 2.245-10.023 6.535-26.711 9.493l-9.42-20.391zm-32.637-34.88l43.835 94.889c-.392.002-.782.014-1.173.014h-24.103l-43.772-94.754h17.173c2.686.001 5.365-.06 8.04-.149zm-175.05.15c-5.343 5.01-15.658 9.739-29.606 11.982l-5.535-11.982h35.141zM15 244.279l35.702 77.284v6.683L15 250.962v-6.683zm50.702 103.33h169.979v7.26H65.702v-7.26zm226.784 7.26v-7.26h152.996v7.26H292.486z"/></symbol><symbol viewBox="0 0 512 512" id="icon-phone" xmlns="http://www.w3.org/2000/svg"><path class="gst0" d="M389.3 338.7c-16.7-16.5-37.6-16.5-54.2 0-12.7 12.6-25.4 25.1-37.8 37.9-3.4 3.5-6.3 4.3-10.4 1.9-8.2-4.5-16.9-8.1-24.8-13-36.8-23.1-67.5-52.8-94.8-86.3-13.5-16.6-25.6-34.4-34-54.4-1.7-4-1.4-6.7 1.9-10 12.7-12.3 25-24.8 37.5-37.4 17.4-17.5 17.4-37.9-.1-55.5-9.9-10-19.8-19.8-29.7-29.8-10.2-10.2-20.3-20.6-30.7-30.7-16.7-16.3-37.6-16.3-54.2.1C45 74 32.8 86.9 19.8 99.3 7.7 110.7 1.7 124.7.4 141c-2 26.5 4.5 51.6 13.6 76 18.8 50.5 47.3 95.4 81.9 136.5 46.8 55.5 102.6 99.5 168 131.3 29.4 14.3 59.9 25.3 93 27.1 22.8 1.3 42.6-4.5 58.5-22.3 10.9-12.1 23.1-23.2 34.6-34.8 17-17.3 17.2-38.1.2-55.2-20.2-20.4-40.6-40.7-60.9-60.9zm-20.4-84.9l39.3-6.7c-6.2-36.1-23.2-68.8-49.1-94.8-27.4-27.4-62-44.6-100.1-50l-5.5 39.5c29.5 4.2 56.4 17.5 77.6 38.7 19.9 20 33 45.4 37.8 73.3zm61.5-170.9C385 37.5 327.6 8.8 264.2 0l-5.5 39.5C313.4 47.2 363 72 402.3 111.1c37.2 37.2 61.6 84.2 70.4 135.8l39.3-6.7c-10.3-59.8-38.6-114.2-81.6-157.3z"/></symbol><symbol id="icon-settings" viewBox="0 0 490.2 490.2" xmlns="http://www.w3.org/2000/svg"><style>.hst0{fill:#fff}</style><path class="hst0" d="M346.3 380.5c-1.4 3.5-5.4 5.1-8.8 3.7l-22.6-9.4c-4-1.7-8.6-.3-11 3.3a138.36 138.36 0 0 1-38.5 38.5c-3.6 2.4-5 7-3.3 11l9.3 22.6c1.4 3.4-.2 7.4-3.7 8.8l-24.6 10.3c-3.4 1.4-7.4-.2-8.8-3.7l-9.4-22.6c-1.7-4-5.9-6.3-10.1-5.4-18 3.6-36.3 3.6-54.4 0-4.2-.8-8.5 1.4-10.1 5.4l-9.4 22.6c-1.4 3.4-5.4 5.1-8.8 3.7l-24.6-10.2c-1.7-.7-3-2-3.7-3.7s-.7-3.5 0-5.2l9.4-22.6c1.7-4 .3-8.6-3.3-11a138.36 138.36 0 0 1-38.5-38.5c-2.4-3.6-7-5-11-3.3l-22.6 9.4c-3.5 1.4-7.4-.2-8.8-3.7l-10.2-24.6c-1.4-3.4.2-7.4 3.7-8.8l22.6-9.4c4-1.7 6.3-5.9 5.4-10.1-3.6-18-3.6-36.3 0-54.4.8-4.2-1.4-8.5-5.4-10.1l-22.6-9.4c-1.7-.7-3-2-3.7-3.7s-.7-3.5 0-5.2L29 220.2c.7-1.7 2-3 3.7-3.7s3.5-.7 5.2 0l22.6 9.4c4 1.7 8.6.3 11-3.3 10.2-15.3 23.2-28.3 38.5-38.5 3.6-2.4 5-7 3.3-11l-9.4-22.6c-.7-1.7-.7-3.5 0-5.2s2-3 3.7-3.7l24.6-10.2c3.4-1.4 7.4.2 8.8 3.7l9.4 22.6c1.9 4.6 7.2 6.8 11.8 4.9 4.6-1.9 6.8-7.2 4.9-11.8l-9.4-22.6c-5.3-12.7-19.8-18.7-32.5-13.5l-24.6 10.2c-6.1 2.5-10.9 7.3-13.5 13.5-2.5 6.1-2.5 12.9 0 19.1l6.6 15.9c-12.6 9.3-23.7 20.4-33.1 33.1l-15.9-6.6c-6.1-2.5-12.9-2.5-19.1 0-6.1 2.5-10.9 7.3-13.5 13.5L1.9 238c-2.5 6.1-2.5 12.9 0 19.1 2.5 6.1 7.3 10.9 13.5 13.5l15.9 6.6a153 153 0 0 0 0 46.8l-15.9 6.6c-12.7 5.3-18.7 19.8-13.5 32.5l10.2 24.3c5.2 12.7 19.8 18.7 32.5 13.5l15.9-6.6c9.3 12.6 20.4 23.7 33.1 33.1L87 443.3c-2.5 6.1-2.5 12.9 0 19.1 2.5 6.1 7.3 10.9 13.5 13.5l24.6 10.2c12.7 5.2 27.3-.8 32.5-13.5l6.6-15.9a153 153 0 0 0 46.8 0l6.6 15.9c4 9.6 13.3 15.4 23 15.4 3.2 0 6.4-.6 9.5-1.9l24.6-10.2c12.7-5.3 18.7-19.8 13.5-32.5l-6.6-15.9c12.6-9.3 23.7-20.4 33.1-33.1l15.9 6.6c12.7 5.3 27.3-.8 32.5-13.5l10.2-24.6c2.5-6.1 2.5-12.9 0-19.1-2.5-6.1-7.3-10.9-13.5-13.5l-22.6-9.4c-4.6-1.9-9.9.3-11.8 4.9s.3 9.9 4.9 11.8l22.6 9.4c1.7.7 3 2 3.7 3.7s.7 3.5 0 5.2l-10.3 24.6z"/><path class="hst0" d="M187.1 238.5c5 0 9-4.1 9-9.1s-4.1-9-9.1-9h-.1c-21.4.2-41.4 8.6-56.4 23.8s-23.2 35.4-23 56.7c.2 21.4 8.6 41.4 23.8 56.4 15.1 14.9 35 23 56.1 23h.6c21.4-.2 41.4-8.6 56.4-23.8 15-15.2 23.2-35.4 23-56.7 0-5-4.1-9-9.1-9h-.1c-5 0-9 4.1-9 9.1.1 16.5-6.2 32.1-17.8 43.9s-27.1 18.3-43.6 18.4h-.5c-16.3 0-31.8-6.3-43.4-17.8-11.8-11.6-18.3-27.1-18.4-43.6s6.2-32.1 17.8-43.9c11.8-11.7 27.3-18.3 43.8-18.4zm282.5-61.6c11.3 0 20.6-9.2 20.6-20.6V137c0-11.3-9.2-20.6-20.6-20.6h-10.5c-2.7-10-6.6-19.6-11.8-28.5l7.5-7.5c8-8 8-21.1 0-29.1l-13.7-13.7c-3.9-3.9-9.1-6-14.5-6-5.5 0-10.7 2.1-14.5 6l-7.5 7.5c-9-5.2-18.5-9.2-28.5-11.8V22.7c0-11.3-9.2-20.6-20.6-20.6h-19.4c-11.3 0-20.6 9.2-20.6 20.6v10.6c-10 2.7-19.6 6.6-28.5 11.8l-7.5-7.5c-3.9-3.9-9.1-6-14.5-6-5.5 0-10.7 2.1-14.5 6l-13.7 13.7c-8 8-8 21.1 0 29.1l7.5 7.5c-5.2 9-9.2 18.5-11.8 28.5h-10.6c-11.3 0-20.6 9.2-20.6 20.6v19.4c0 11.3 9.2 20.6 20.6 20.6h10.6c2.7 10 6.6 19.6 11.8 28.5l-7.5 7.5c-8 8-8 21.1 0 29.1l13.7 13.7c3.9 3.9 9.1 6 14.5 6 5.5 0 10.7-2.1 14.5-6l7.5-7.5c9 5.2 18.5 9.2 28.5 11.8v10.6c0 11.3 9.2 20.6 20.6 20.6h19.4c11.3 0 20.6-9.2 20.6-20.6V260c10-2.7 19.6-6.6 28.5-11.8l7.5 7.5c3.9 3.9 9.1 6 14.5 6 5.5 0 10.7-2.1 14.5-6l13.7-13.7c8-8 8-21.1 0-29.1l-7.5-7.5c5.2-9 9.2-18.5 11.8-28.5h10.5zM443 166.1c-2.5 12.8-7.5 24.8-14.8 35.7-2.4 3.6-1.9 8.4 1.1 11.4l12.6 12.6c1 1 1 2.5 0 3.5L428.2 243c-.6.6-1.3.7-1.7.7-.5 0-1.1-.1-1.7-.7l-12.6-12.6c-3.1-3.1-7.9-3.5-11.4-1.1-10.9 7.3-22.9 12.2-35.7 14.8-4.2.8-7.3 4.6-7.3 8.9v17.8c0 1.3-1.1 2.4-2.4 2.4H336c-1.3 0-2.4-1.1-2.4-2.4V253c0-4.3-3.1-8-7.3-8.9-12.8-2.5-24.8-7.5-35.7-14.8-1.5-1-3.3-1.5-5-1.5-2.3 0-4.7.9-6.4 2.7l-12.6 12.6c-.6.6-1.3.7-1.7.7-.5 0-1.1-.1-1.7-.7l-13.7-13.7c-1-1-1-2.5 0-3.5l12.6-12.6c3.1-3.1 3.5-7.9 1.1-11.4-7.3-10.9-12.2-22.9-14.8-35.7-.8-4.2-4.6-7.3-8.9-7.3h-17.8c-1.3 0-2.4-1.1-2.4-2.4V137c0-1.3 1.1-2.4 2.4-2.4h17.8c4.3 0 8-3.1 8.9-7.3 2.5-12.8 7.5-24.8 14.8-35.7 2.4-3.6 1.9-8.4-1.1-11.4l-12.6-12.6c-.6-.6-.7-1.3-.7-1.7 0-.5.1-1.1.7-1.7l13.6-13.8c.6-.6 1.3-.7 1.7-.7.5 0 1.1.1 1.7.7L279.1 63c3.1 3.1 7.9 3.5 11.4 1.1 10.9-7.3 22.9-12.2 35.7-14.8 4.2-.8 7.3-4.6 7.3-8.9V22.7c0-1.3 1.1-2.4 2.4-2.4h19.4c1.3 0 2.4 1.1 2.4 2.4v17.8c0 4.3 3.1 8 7.3 8.9 12.8 2.5 24.8 7.5 35.7 14.8 3.6 2.4 8.4 1.9 11.4-1.1l12.6-12.6c.6-.6 1.3-.7 1.7-.7.5 0 1.1.1 1.7.7l13.7 13.7c1 1 1 2.5 0 3.5l-12.6 12.6c-3.1 3.1-3.5 7.9-1.1 11.4 7.3 10.9 12.2 22.9 14.8 35.7.8 4.2 4.6 7.3 8.9 7.3h17.8c1.3 0 2.4 1.1 2.4 2.4v19.4c0 1.3-1.1 2.4-2.4 2.4h-17.8c-4.3-.1-8 2.9-8.8 7.2z"/><path class="hst0" d="M345.7 88.5c-32.1 0-58.1 26.1-58.1 58.1 0 32.1 26.1 58.1 58.1 58.1 32.1 0 58.1-26.1 58.1-58.1s-26.1-58.1-58.1-58.1zm0 98.1c-22.1 0-40-17.9-40-40s17.9-40 40-40 40 17.9 40 40-18 40-40 40z"/></symbol><symbol viewBox="0 0 60 60" id="icon-stopwatch" xmlns="http://www.w3.org/2000/svg"><path d="M31.634 37.989a3.558 3.558 0 0 0 2.606-1.459l9.363-12.944a1 1 0 0 0-1.397-1.397L29.26 31.555c-.844.614-1.375 1.563-1.456 2.604s.296 2.06 1.033 2.797a3.554 3.554 0 0 0 2.797 1.033zm-1.836-3.674a1.56 1.56 0 0 1 .637-1.142l7.897-5.713-5.711 7.895a1.565 1.565 0 0 1-2.371.187 1.564 1.564 0 0 1-.452-1.227z"/><path d="M54.034 19.564c-.01-.021-.01-.043-.021-.064-.012-.02-.031-.031-.044-.05a27.185 27.185 0 0 0-3.565-4.809l2.148-2.147 1.414 1.414 4.242-4.243-4.242-4.242-4.243 4.242 1.415 1.415-2.148 2.147a27.154 27.154 0 0 0-4.809-3.566c-.019-.013-.03-.032-.05-.044-.021-.012-.043-.011-.064-.022a26.81 26.81 0 0 0-10.273-3.404V5h1.5c1.379 0 2.5-1.121 2.5-2.5S36.672 0 35.293 0h-9c-1.379 0-2.5 1.121-2.5 2.5s1.121 2.5 2.5 2.5h1.5v1.156c-1.08.115-2.158.291-3.224.535a1 1 0 1 0 .447 1.949 25.43 25.43 0 0 1 2.78-.477l1.073-.083c.328-.025.63-.043.924-.057V10a1 1 0 1 0 2 0V8.03a24.805 24.805 0 0 1 10.456 2.845l-.986 1.707a1 1 0 0 0 1.732 1l.983-1.703a25.194 25.194 0 0 1 7.772 7.772l-1.703.983a1 1 0 0 0 1.002 1.732l1.707-.986a24.82 24.82 0 0 1 2.849 10.619H53.63a1 1 0 1 0 0 2h1.975a24.82 24.82 0 0 1-2.849 10.619l-1.707-.986a1 1 0 0 0-1 1.732l1.703.983a25.194 25.194 0 0 1-7.772 7.772l-.983-1.703a.998.998 0 0 0-1.366-.366.999.999 0 0 0-.366 1.366l.986 1.707a24.805 24.805 0 0 1-10.456 2.845V56a1 1 0 1 0-2 0v1.976a25.235 25.235 0 0 1-4.776-.617.996.996 0 0 0-1.198.751 1 1 0 0 0 .751 1.198c1.996.46 4.035.692 6.058.692.049 0 .096-.003.145-.004.007 0 .012.004.018.004.008 0 .015-.005.023-.005a26.825 26.825 0 0 0 13.219-3.573c.031-.014.064-.021.094-.039.02-.012.031-.031.05-.044a27.197 27.197 0 0 0 9.773-9.761c.019-.027.043-.048.06-.078.012-.021.011-.043.021-.064C56.317 42.476 57.63 37.89 57.63 33s-1.313-9.476-3.596-13.436zm-.069-11.313l1.414 1.414-1.414 1.415-1.415-1.415 1.415-1.414zm-24.172-2.23V3h-3.5c-.275 0-.5-.225-.5-.5s.225-.5.5-.5h9c.275 0 .5.225.5.5s-.225.5-.5.5h-3.5v3.021c-.348-.014-.68-.021-1-.021l-.088.002L30.63 6c-.164 0-.328.011-.492.014-.116.003-.225.002-.345.007zm-8 7.979h-5a1 1 0 1 0 0 2h5a1 1 0 1 0 0-2zm0 7h-10a1 1 0 1 0 0 2h10a1 1 0 1 0 0-2zm0 7h-15a1 1 0 1 0 0 2h15a1 1 0 1 0 0-2zm0 7h-19a1 1 0 1 0 0 2h19a1 1 0 1 0 0-2zm0 7h-13a1 1 0 1 0 0 2h13a1 1 0 1 0 0-2zm0 7h-7a1 1 0 1 0 0 2h7a1 1 0 1 0 0-2z"/></symbol><symbol viewBox="0 0 509.65 513" id="icon-tools" xmlns="http://www.w3.org/2000/svg"><defs><style>.jcls-1{fill:none;stroke:#000;stroke-miterlimit:10}</style></defs><path class="jcls-1" d="M464.27 438.69a26.47 26.47 0 1 0-26.47 26.47 26.5 26.5 0 0 0 26.47-26.47zm-37.26 0a10.78 10.78 0 1 1 10.78 10.78A10.8 10.8 0 0 1 427 438.69z"/><path class="jcls-1" d="M509.13 437.32a69.4 69.4 0 0 0-23.1-50.2l-158-142.47L467.73 105a14.82 14.82 0 0 0 2.7-1.08l30.24-16a14.73 14.73 0 0 0 3.54-23.43l-34.05-34.02A14.73 14.73 0 0 0 446.73 34l-16 30.24a14.88 14.88 0 0 0-1.1 2.72l-65.88 65.94a7.85 7.85 0 0 0 11.1 11.1l60.49-60.5 15.85 15.85-154.7 154.7-15.85-15.85 67.52-67.52a7.85 7.85 0 1 0-11.1-11.1l-49 49-53.32-48.09a120.48 120.48 0 0 0-157-152A7.85 7.85 0 0 0 75 21.36L136.6 83a9.65 9.65 0 0 1 0 13.64l-40 40a9.65 9.65 0 0 1-13.64 0L21.36 75a7.85 7.85 0 0 0-12.87 2.74 120.46 120.46 0 0 0 149.57 157.8l41.23 45.08a42.33 42.33 0 0 1-53.11 20.2 7.84 7.84 0 0 0-8.39 1.77l-96.07 96.05A66.7 66.7 0 0 0 136 493l96.06-96.06a7.85 7.85 0 0 0 1.76-8.39 42.42 42.42 0 0 1 54.92-54.92 7.84 7.84 0 0 0 8.39-1.77l18.12-18.12a28.89 28.89 0 0 0 0-40.85l-7.71-7.71 9.38-9.38 158.55 143a54.34 54.34 0 1 1-76.49 77L281.14 346.88a7.85 7.85 0 0 0-11.58 10.59l117.89 128.91a69.42 69.42 0 0 0 50.11 22.75h1.62a70 70 0 0 0 70-71.83zm-343-216.18a7.85 7.85 0 0 0-8.53-2.06A104.76 104.76 0 0 1 19.38 95.22l52.48 52.48a25.34 25.34 0 0 0 35.83 0l40-40a25.34 25.34 0 0 0 0-35.83L95.21 19.38a104.78 104.78 0 0 1 123 140.45 7.84 7.84 0 0 0 2 8.73L277 219.68l-7.42 7.42-7.71-7.71a28.89 28.89 0 0 0-40.85 0l-18.12 18.12a7.85 7.85 0 0 0-1.76 8.39 42.37 42.37 0 0 1 2.84 16.55zm138 81.48l-14.61 14.68a58.17 58.17 0 0 0-57.21 14.7 58.16 58.16 0 0 0-14.74 57.21L125 481.87a51 51 0 1 1-72.13-72.13l92.62-92.62a58.11 58.11 0 0 0 71.95-71.95l14.68-14.68a13.21 13.21 0 0 1 18.66 0L264 243.75l26.95 26.95L304.2 284a13.21 13.21 0 0 1 0 18.62zM460 42.5l32.2 32.2-28.45 15L445 70.95z"/><path class="jcls-1" d="M161.15 346.75a7.85 7.85 0 0 0-11.1 0l-74.31 74.32a7.85 7.85 0 0 0 11.1 11.1l74.32-74.32a7.85 7.85 0 0 0-.01-11.1zm16.37 27.46l-74.32 74.31a7.85 7.85 0 0 0 11.1 11.1l74.32-74.32a7.85 7.85 0 0 0-11.1-11.1z"/></symbol><symbol id="icon-woman" viewBox="0 0 512 512" xmlns="http://www.w3.org/2000/svg"><style>.kst0{fill:#fff}</style><path class="kst0" d="M303.9 341.9c-10.4-9.8-20.9-13.9-22.7-14.5l-35.7-14.9-.9-.3-24.7-6.2v-20.9c.4-.2.7-.4 1.1-.6.7.5 1.6.8 2.5 1 15.6 2.5 29.8 6.5 41.2 11.6.8.4 1.7.6 2.6.6 2.2 0 4.3-1.2 5.4-3.1l.7-.7c20.1-26 31.2-59.6 31.2-94.7 0-43-16.4-83-44.9-109.9-21.2-19.9-47.8-30.9-75-30.9-66.1 0-119.9 63.2-119.9 140.8 0 35.9 11.5 70.1 32.4 96.3 0 .1.1.1.1.2l.1.1.5.5.1.1c.7.6 1.4 1 2.3 1.2h.1c.3.1.5.1.8.2h.1c.3 0 .6.1.9.1h.2c.2 0 .4 0 .6-.1.1 0 .2 0 .4-.1.2 0 .5-.1.7-.2.1 0 .2-.1.4-.1.1 0 .2-.1.3-.1 11.5-5.2 26-9.3 41.7-11.7.8-.1 1.5-.4 2.2-.8.2.1.5.3.7.4V306l-26.2 6.3-.9.3-35.7 14.9c-1.8.6-12.3 4.7-22.7 14.5-10.3 9.7-22.6 27.2-22.6 55.4v50.2c0 3.4 2.8 6.2 6.2 6.2h75.1c3.4 0 6.2-2.8 6.2-6.2 0-3.4-2.8-6.2-6.2-6.2H102V395c0-3.4-2.8-6.2-6.2-6.2-3.4 0-6.2 2.8-6.2 6.2v46.2H53.8v-43.9c0-44.9 35.5-57.6 37-58.1.1 0 .3-.1.4-.2l29.7-12.4 4 14.4L153 441.2h-12.4c-3.4 0-6.2 2.8-6.2 6.2 0 3.4 2.8 6.2 6.2 6.2h179.6c3.4 0 6.2-2.8 6.2-6.3v-50.2c.1-28-12.2-45.5-22.5-55.2zm-199.8-58c-17.3-23.4-26.8-53.3-26.8-84.7 0-70.7 48.2-128.3 107.4-128.3 24.4 0 47.3 9.5 66.4 27.5 26.1 24.5 41 61.3 41 100.8 0 31.3-9.5 61.3-26.8 84.7-9-3.6-19.3-6.7-30.4-8.9 11-10 18.6-23.8 20.7-39.3 15.2-1.2 27.2-14 27.2-29.5 0-15.3-11.7-28-26.6-29.5 0-2.9-2.1-5.4-5-6-42.5-8.7-61.2-34-61.4-34.2-1.1-1.5-2.8-2.5-4.6-2.6-1.8-.1-3.7.5-5 1.9-24.3 24.9-62 35-62.3 35-2.7.7-4.6 3.1-4.7 5.9-14.9 1.5-26.6 14.2-26.6 29.5 0 15.5 12 28.3 27.2 29.5 2.1 15.5 9.7 29.2 20.7 39.3-11 2.2-21.4 5.2-30.4 8.9zM256.2 223v-33.8c8 1.4 14.1 8.5 14.1 16.9.1 8.4-6 15.4-14.1 16.9zm-142.9-33.8V223c-8-1.4-14.1-8.5-14.1-16.9-.1-8.4 6.1-15.5 14.1-16.9zm12.5 37.6v-45.5c10.7-3.4 37.4-13.2 58.6-32.3 8.1 8.6 27 24.9 59.4 32.7v45.1c0 29-23.6 52.6-52.6 52.6h-12.8c-29 0-52.6-23.6-52.6-52.6zm7 96L157 317c2.8-.7 4.8-3.2 4.8-6.1v-21.1c5.3 1.4 10.8 2.1 16.5 2.1h12.8c5.7 0 11.2-.7 16.4-2.1v21.1c0 2.9 1.9 5.4 4.7 6.1l24.3 6.1-3.4 12.2c-21.7 12.7-44.6 16.5-68.2 11.4-14.3-3.1-24.7-8.8-28.7-11.3l-3.4-12.6zm70.7 118.4H166l-25-89.4c5.5 2.5 12.6 5 20.8 6.9 6.6 1.5 14.4 2.6 23.1 2.6 13 0 27.9-2.4 43.7-9.6l-25.1 89.5zm110.5 0h-35.7V395c0-3.4-2.8-6.2-6.2-6.2-3.4 0-6.2 2.8-6.2 6.2v46.2h-49.3l31.9-113.9 28.2 11.7c.1.1.3.1.4.1 1.5.5 37 13.3 37 58.1l-.1 44z"/><path class="kst0" d="M183.6 235.7h10.6c3.4 0 6.2-2.8 6.2-6.2s-2.8-6.2-6.2-6.2h-4.4v-14c0-3.4-2.8-6.2-6.2-6.2-3.4 0-6.2 2.8-6.2 6.2v20.3c0 3.4 2.8 6.1 6.2 6.1zm230.3-26.5c-37.6 0-68.1-30.6-68.1-68.1S376.4 73 413.9 73s68.1 30.4 68.1 68-30.6 68.2-68.1 68.2zm0-124c-30.8 0-55.8 25-55.8 55.8s25 55.8 55.8 55.8 55.8-25 55.8-55.8-25.1-55.8-55.8-55.8z"/><path class="kst0" d="M393.4 104.6c4.9-.9 11.8-1.6 21-1.6 10.1 0 17.5 2.1 22.3 6.2 4.5 3.7 7.4 9.6 7.4 16.7 0 7.2-2.2 13.1-6.5 17.1-5.5 5.5-14.1 8.1-23.8 8.1-2.6 0-4.9-.1-6.7-.4V179h-13.7v-74.4zm13.7 35.1c1.7.4 3.9.6 6.7.6 10.3 0 16.6-5 16.6-13.9 0-8.4-5.8-12.9-15.3-12.9-3.8 0-6.5.3-7.9.7v25.5z"/><path class="kst0" d="M383.6 156.8h32.7v10h-32.7z"/></symbol><symbol viewBox="0 0 512 512" id="icon-wrench" xmlns="http://www.w3.org/2000/svg"><path d="M343.345 237.774a8.462 8.462 0 0 0-9.42 7.387c-1.441 11.913-.632 23.886 2.405 35.592a93.68 93.68 0 0 0 4.91 16.02 8.466 8.466 0 0 0 7.84 5.268 8.427 8.427 0 0 0 3.195-.63 8.465 8.465 0 0 0 4.64-11.035 76.71 76.71 0 0 1-4.056-13.289 8.412 8.412 0 0 0-.098-.417c-2.54-9.701-3.222-19.619-2.029-29.477a8.466 8.466 0 0 0-7.387-9.419z"/><path d="M505.529 68.887a16.175 16.175 0 0 0-17.999-1.016l-43.888 25.872-17.872-30.319 42.946-25.318a16.179 16.179 0 0 0 7.827-16.241 16.181 16.181 0 0 0-12.009-13.447L444.17 3.159c-8.258-2.134-16.851-.922-24.198 3.409a8.465 8.465 0 0 0 8.598 14.584 14.899 14.899 0 0 1 11.368-1.601l18.719 4.835-42.089 24.812c-7.707 4.543-10.281 14.509-5.739 22.216l18.587 31.531c4.544 7.706 14.51 10.28 22.217 5.737l43.031-25.366-5.22 20.213a14.903 14.903 0 0 1-6.906 9.171l-27.216 16.044a14.901 14.901 0 0 1-11.367 1.602l-39.778-10.273a8.46 8.46 0 0 0-6.397.893l-12.835 7.522a49.29 49.29 0 0 0-2.176-1.565 48.123 48.123 0 0 0-2.274-1.466c-.479-.292-.967-.563-1.454-.839-.216-.121-.427-.248-.644-.366a47.835 47.835 0 0 0-2.028-1.039l-.114-.056a48.371 48.371 0 0 0-10.171-3.581c-.424-.098-.848-.196-1.274-.283a47.467 47.467 0 0 0-2.101-.381c-.209-.033-.419-.058-.628-.087a48.513 48.513 0 0 0-1.895-.235l-.589-.058a47.106 47.106 0 0 0-5.065-.187l-.156.005c-.866.018-1.73.058-2.592.123l-.029.002c-1.75.134-3.493.368-5.224.699l-.302.058c-.811.16-1.621.336-2.425.539l-2.201-5.357 38.706-22.682a8.462 8.462 0 0 0 4.165-6.725l9.978-38.635a14.905 14.905 0 0 1 6.902-9.169l.298-.175a8.465 8.465 0 0 0 2.999-11.589c-2.373-4.029-7.564-5.373-11.588-2.999l-.301.177c-7.347 4.332-12.567 11.264-14.7 19.521l-9.522 36.87-35.182 20.612a38.618 38.618 0 0 0-6.256-5.826c-.098-.073-.2-.144-.299-.217-.658-.48-1.329-.94-2.017-1.377a32.632 32.632 0 0 0-1.995-1.196 39.479 39.479 0 0 0-4.079-1.995c-9.588-4.002-20.162-4.029-29.773-.076-11.775 4.843-19.908 14.84-22.865 26.315-.181-.094-.374-.168-.556-.26-.388-.191-.782-.37-1.176-.549-.412-.188-.81-.398-1.23-.574-9.59-4.003-20.163-4.03-29.773-.077-11.163 4.591-19.128 13.931-22.413 24.799-.243-.135-.494-.256-.74-.386-.419-.223-.836-.45-1.263-.659-.184-.088-.371-.169-.556-.255-.726-.34-1.46-.657-2.205-.951l-.015-.006c-9.061-3.588-19.452-3.806-29.111.166-14.794 6.085-23.839 20.304-24.092 35.37l-.036-.01c-8.268-2.526-17.39-2.311-25.831 1.16-19.594 8.06-28.985 30.561-20.933 50.159l2.344 5.705c-.462-.146-.922-.296-1.393-.418l-33.729-8.71c-7.051-1.822-14.726-.738-20.996 2.958l-30.009 17.691c-6.374 3.758-10.905 9.774-12.755 16.938l-8.714 33.73c-1.851 7.165-.8 14.622 2.958 20.996l17.691 30.009c3.758 6.375 9.773 10.906 16.939 12.755l33.728 8.71a27.718 27.718 0 0 0 20.996-2.958l30.01-17.691c6.374-3.758 10.904-9.772 12.755-16.938l8.055-31.191 22.874 53.899c5.913 14.189 15.63 26.333 28.101 35.123.23.163.469.314.714.453l56.19 31.72 3.742 21.641c.797 4.607 5.177 7.692 9.783 6.898a8.463 8.463 0 0 0 6.898-9.783l-4.426-25.596a8.46 8.46 0 0 0-4.179-5.928l-59.305-33.479c-9.697-6.928-17.262-16.45-21.914-27.611l-20.204-47.608a38.209 38.209 0 0 0 13.667-2.875c14.724-6.056 23.684-20.266 23.814-35.272a39.088 39.088 0 0 0 11.363 1.683c5.08 0 10.053-.986 14.783-2.932 11.24-4.623 19.157-13.945 22.425-24.762a38.883 38.883 0 0 0 19.094 4.986c5.08 0 10.053-.986 14.783-2.932a38.526 38.526 0 0 0 11.931-7.726 33.665 33.665 0 0 0 7.527-2.101l23.383-9.597c3.329-1.367 7.028-1.332 10.413.095 3.606 1.52 6.415 4.399 7.91 8.107a8.467 8.467 0 0 0 7.853 5.3 8.465 8.465 0 0 0 7.847-11.632c-3.195-7.919-9.243-14.089-17.034-17.373-7.572-3.193-15.888-3.247-23.417-.158l-23.383 9.597a16.667 16.667 0 0 1-6.556 1.245c-.093-.001-.186.006-.278.003-5.618-.156-11.016-3.108-14.331-8.02a18.558 18.558 0 0 1-.874-1.44c-.073-.133-.15-.264-.22-.4a19.465 19.465 0 0 1-.721-1.537l-3.547-8.631a18.923 18.923 0 0 1-1.245-4.715c-.423-3.189-.026-6.423 1.231-9.429a17.494 17.494 0 0 1 2.606-4.348 16.815 16.815 0 0 1 6.646-4.913l66.04-27.051c7.567-3.1 15.953-3.026 23.612.206 1.423.6 2.786 1.3 4.091 2.082.111.068.223.13.333.199.217.133.427.275.64.413a32.799 32.799 0 0 1 5.216 4.282c.044.044.095.077.14.12 2.982 3.055 5.375 6.714 7.036 10.83l17.412 43.172c2.948 7.309 4.061 15.284 3.215 23.064l-9.799 90.21a8.328 8.328 0 0 0 0 1.827l3.948 36.388a8.482 8.482 0 0 0 1.292 3.661l81.372 126.696c2.28 3.548.959 6.799.286 8.032-.674 1.232-2.695 4.1-6.913 4.1H289.028a7.86 7.86 0 0 1-7.761-6.533l-3.523-20.374c-.796-4.606-5.172-7.69-9.783-6.898a8.464 8.464 0 0 0-6.898 9.783l3.523 20.373a24.754 24.754 0 0 0 24.442 20.578h186.866a24.793 24.793 0 0 0 21.769-12.914 24.798 24.798 0 0 0-.898-25.296L416.47 346.645l-3.633-33.491 9.7-89.297c1.076-9.906-.216-20.027-3.68-29.415a8.585 8.585 0 0 0-.483-1.683l-17.412-43.172a51.025 51.025 0 0 0-4.301-8.345l6.664-3.906 36.396 9.4a32.154 32.154 0 0 0 8.039 1.028c5.63 0 11.182-1.502 16.159-4.436l27.216-16.044c7.347-4.33 12.568-11.263 14.7-19.521l5.645-21.858a16.176 16.176 0 0 0-5.951-17.018zM128.588 284.341c.109 1.23.009 2.458-.299 3.651l-8.71 33.729a10.707 10.707 0 0 1-4.961 6.589L84.607 346a10.848 10.848 0 0 1-8.166 1.15l-33.729-8.71a10.71 10.71 0 0 1-6.588-4.961L18.433 303.47a10.7 10.7 0 0 1-1.15-8.166l8.712-33.73a10.712 10.712 0 0 1 4.96-6.588l30.01-17.691a10.788 10.788 0 0 1 8.166-1.151l33.729 8.71c1.26.325 2.445.876 3.522 1.638a8.464 8.464 0 0 0 9.164.39l.271-.159 9.79 23.827c.356.866.752 1.71 1.168 2.544.135.272.28.538.422.807.297.56.606 1.112.93 1.656.176.297.35.595.534.887.366.578.749 1.142 1.144 1.7.117.166.22.342.34.506a8.459 8.459 0 0 0-1.557 5.691zm40.938-8.379a21.39 21.39 0 0 1-8.171 1.624c-3.206 0-6.283-.708-9.063-1.994-.144-.079-.273-.181-.423-.252a21.524 21.524 0 0 1-3.333-1.985l-.105-.077c-.049-.037-.09-.081-.14-.119a20.562 20.562 0 0 1-.923-.738c-.113-.097-.23-.188-.341-.288-.098-.085-.19-.175-.286-.262a21.537 21.537 0 0 1-5.294-7.63l-19.466-47.374c-4.506-10.968.748-23.559 11.714-28.069a21.372 21.372 0 0 1 8.171-1.625c2.615 0 5.142.476 7.495 1.346.198.076.397.147.593.227.211.085.418.178.625.27 3.916 1.77 7.329 4.695 9.628 8.596.03.052.067.099.099.15l14.852 36.145a39.163 39.163 0 0 0 2.094 4.274l3.99 9.709c4.505 10.97-.75 23.561-11.716 28.072zm49.96-36.521a21.816 21.816 0 0 1-8.344 1.659 21.883 21.883 0 0 1-18.649-10.363l-15.061-36.653a38.705 38.705 0 0 0-2.086-4.253l-3.654-8.892c-4.601-11.198.765-24.055 11.961-28.66a21.854 21.854 0 0 1 8.344-1.659c3.614 0 7.062.885 10.121 2.469.368.195.738.388 1.096.604.076.045.15.094.226.14a21.811 21.811 0 0 1 8.16 9.083c.073.151.158.293.238.439.161.437.32.875.5 1.309l19.122 46.537c.185.449.401.879.6 1.318 3.406 10.76-1.952 22.553-12.574 26.922zm52.072-90.392c-8.373 3.43-14.928 9.963-18.455 18.396a35.048 35.048 0 0 0-2.731 13.514c-.002 2.009.179 4.02.525 6.015a36.106 36.106 0 0 0 2.179 7.581l1.773 4.316 1.773 4.316.01.021c.28.681.585 1.343.902 1.996.104.214.211.424.318.635.232.457.474.906.725 1.349.125.223.247.449.378.669.326.551.665 1.09 1.018 1.618.226.34.465.667.701.998.143.199.286.398.432.594a35.215 35.215 0 0 0 7.331 7.303c-.332.013-.661.021-.991.021a21.886 21.886 0 0 1-19.559-11.968 39.613 39.613 0 0 0-.78-2.077l-19.122-46.537c-.185-.45-.401-.88-.6-1.32-3.404-10.759 1.955-22.55 12.575-26.92a21.844 21.844 0 0 1 8.342-1.659c3.277 0 6.421.723 9.261 2.039.135.064.272.126.405.193.316.155.628.318.936.488a21.778 21.778 0 0 1 9.544 10.779l3.135 7.629-.025.011zm45.858-18.784l-30.037 12.304-3.779-9.195c-4.601-11.198.765-24.054 11.961-28.659a21.854 21.854 0 0 1 8.344-1.659c3.277 0 6.422.723 9.261 2.039.134.063.271.125.404.192.316.155.625.318.933.486a21.784 21.784 0 0 1 9.546 10.78l3.867 9.41-10.5 4.302z"/><path d="M102.271 264.055a18.067 18.067 0 0 0-11.114-8.37l-17.033-4.399c-4.626-1.195-9.664-.484-13.778 1.941l-15.152 8.933a18.068 18.068 0 0 0-8.371 11.115l-4.398 17.033a18.061 18.061 0 0 0 1.941 13.778l8.933 15.153a18.062 18.062 0 0 0 11.115 8.37l17.031 4.398a18.188 18.188 0 0 0 13.778-1.94l15.152-8.933a18.064 18.064 0 0 0 8.371-11.115l4.398-17.033a18.062 18.062 0 0 0-1.941-13.778l-8.932-15.153zm-5.516 24.698l-4.398 17.033a1.239 1.239 0 0 1-.577.764l-15.152 8.933a1.267 1.267 0 0 1-.948.134l-17.031-4.398a1.257 1.257 0 0 1-.764-.576l-8.934-15.155a1.241 1.241 0 0 1-.133-.947l4.398-17.03c.084-.325.288-.596.577-.766l15.154-8.934a1.254 1.254 0 0 1 .947-.133l17.03 4.398c.325.085.597.289.766.577l8.932 15.152c.169.288.216.625.133.948z"/></symbol></svg>